<svg id="Layer_2" data-name="Layer 2" xmlns="http://www.w3.org/2000/svg" viewBox="0 0 1000 1000"><title>Artboard 1 copy</title><path d="M161.4714,344.3853s-13,67,42,96c57.9511,30.5561,1,396,63,422s472-49,498-52c7.5808-.8747,81.4339-19.0174,75-59-14-87-97.8671-312.6759-91-334,19-59,43.7543-57.582,45-99,4-133-103-205-371-182C188.5441,156.4612,161.4714,344.3853,161.4714,344.3853Z" fill="#efab7d" stroke="#000" stroke-miterlimit="10" stroke-width="40"/><path d="M161.4714,344.3853s-13,67,42,96c57.9511,30.5561,1,396,63,422s472-49,498-52-90-391-80-421,49.1859-52.3957,37-92c-8-26-48-120-316-97C171.5441,220.4612,161.4714,344.3853,161.4714,344.3853Z" fill="#fff1d9" stroke="#000" stroke-miterlimit="10" stroke-width="40"/></svg>